# xmcd
#
# Track frame offsets:
# 150
# 13260
# 26705
# 40453
# 54487
# 68333
# 82809
# 96136
# 110690
# 124676
# 140940
# 157556
# 170876
# 184518
# 198188
# 212199
# 225610
# 239236
# 252672
# 266775
#
# Disc length: 3830 seconds
#
#
# Revision: 0
# Processed by: cddbd v1.5.2PL0 Copyright (c) Steve Scherf et al.
# Submitted via: FreeRIP 2.944 
#
DISCID=220ef414
DTITLE=Grahame-K1908 - Wind-Willows5
DYEAR=1908
DGENRE=Humour
TTITLE0=WW 501
TTITLE1=WW 502
TTITLE2=WW 503
TTITLE3=WW 504
TTITLE4=WW 505
TTITLE5=WW 506
TTITLE6=WW 507
TTITLE7=WW 508
TTITLE8=WW 509
TTITLE9=WW 510
TTITLE10=WW 511
TTITLE11=WW 512
TTITLE12=WW 513
TTITLE13=WW 514
TTITLE14=WW 515
TTITLE15=WW 516
TTITLE16=WW 517
TTITLE17=WW 518
TTITLE18=WW 519
TTITLE19=WW 520
EXTD=The Wind in the Willows 5 CDs 1908\nby Kenneth Grahame read by Mary Woods\nBlackstone Audio - Humour misc
EXTT0=
EXTT1=
EXTT2=
EXTT3=
EXTT4=
EXTT5=
EXTT6=
EXTT7=
EXTT8=
EXTT9=
EXTT10=
EXTT11=
EXTT12=
EXTT13=
EXTT14=
EXTT15=
EXTT16=
EXTT17=
EXTT18=
EXTT19=
PLAYORDER=
